<svg data-v-fde0c5aa="" xmlns="http://www.w3.org/2000/svg" viewBox="0 0 300 300" class="iconLeft"><!----><defs data-v-fde0c5aa=""><!----></defs><rect data-v-fde0c5aa="" fill="transparent" x="0" y="0" width="300px" height="300px" class="logo-background-square"></rect><defs data-v-fde0c5aa=""><!----></defs><g data-v-fde0c5aa="" id="e40587c9-466a-435f-84f5-deebfb625239" fill="#000000" transform="matrix(2.5155049651889887,0,0,2.5155049651889887,111.5600523280591,132.74363575288316)"><path d="M2.41 2.00L2.41 0.42L0.85 0.42L0.85 2.00ZM2.41 10.50L2.41 3.22L0.85 3.22L0.85 10.50ZM5.68 10.50L5.68 6.54C5.68 5.10 6.41 4.33 7.41 4.33C8.40 4.33 8.78 4.98 8.78 6.09L8.78 10.50L10.33 10.50L10.33 6.03C10.33 4.30 9.79 3.01 7.77 3.01C6.82 3.01 6.09 3.37 5.56 4.27L5.56 3.22L4.13 3.22L4.13 10.50ZM11.62 8.40C11.75 9.83 12.85 10.71 14.63 10.71C16.18 10.71 17.60 10.04 17.60 8.43C17.60 7.03 16.63 6.52 15.76 6.30L13.90 5.84C13.50 5.74 13.13 5.52 13.13 5.11C13.13 4.56 13.65 4.26 14.53 4.26C15.32 4.26 15.85 4.59 15.96 5.33L17.36 5.11C17.28 3.92 16.31 3.01 14.57 3.01C13.08 3.01 11.73 3.65 11.73 5.22C11.73 6.43 12.59 6.96 13.54 7.20L15.30 7.64C15.89 7.80 16.14 8.05 16.14 8.53C16.14 9.25 15.33 9.46 14.67 9.46C13.61 9.46 13.13 8.90 13.03 8.18L11.62 8.40ZM20.44 13.30L20.44 9.79C20.86 10.39 21.52 10.71 22.29 10.71C24.21 10.71 25.44 9.23 25.44 6.86C25.44 4.49 24.23 3.01 22.32 3.01C21.39 3.01 20.72 3.47 20.30 4.17L20.30 3.22L18.89 3.22L18.89 13.30ZM20.29 6.86C20.29 5.17 21.20 4.31 22.12 4.31C23.13 4.31 23.88 5.17 23.88 6.86C23.88 8.57 23.14 9.42 22.11 9.42C21.07 9.42 20.29 8.57 20.29 6.86ZM33.10 7.28C33.11 7.21 33.11 6.85 33.11 6.66C33.11 4.44 31.81 3.01 29.74 3.01C27.78 3.01 26.31 4.35 26.31 6.86C26.31 9.37 27.78 10.71 29.74 10.71C31.39 10.71 32.55 9.93 33.01 8.37L31.54 8.06C31.33 8.93 30.63 9.42 29.83 9.42C28.83 9.42 27.96 8.76 27.86 7.28ZM29.72 4.31C30.77 4.31 31.44 5.05 31.50 6.13L27.90 6.13C28.08 4.89 28.91 4.31 29.72 4.31ZM35.55 6.86C35.55 5.10 36.36 4.31 37.38 4.31C38.16 4.31 38.78 4.75 39.00 5.81L40.52 5.52C40.12 3.85 38.95 3.01 37.38 3.01C35.41 3.01 33.99 4.35 33.99 6.86C33.99 9.37 35.41 10.71 37.38 10.71C38.95 10.71 40.12 9.88 40.52 8.22L39.00 7.92C38.78 8.97 38.16 9.42 37.38 9.42C36.34 9.42 35.55 8.62 35.55 6.86ZM45.07 9.20C44.84 9.27 44.63 9.28 44.49 9.28C43.83 9.28 43.83 8.83 43.83 8.20L43.83 4.44L45.12 4.44L45.12 3.22L43.83 3.22L43.83 0.85L42.28 1.46L42.28 3.22L41.24 3.22L41.24 4.44L42.28 4.44L42.28 8.37C42.28 9.80 42.60 10.64 44.13 10.64C44.39 10.64 44.93 10.57 45.21 10.47ZM46.06 6.86C46.06 9.37 47.54 10.71 49.55 10.71C51.53 10.71 53.02 9.37 53.02 6.86C53.02 4.35 51.53 3.01 49.55 3.01C47.54 3.01 46.06 4.35 46.06 6.86ZM47.61 6.86C47.61 5.10 48.48 4.31 49.55 4.31C50.60 4.31 51.46 5.10 51.46 6.86C51.46 8.62 50.60 9.42 49.55 9.42C48.48 9.42 47.61 8.62 47.61 6.86ZM55.86 10.50L55.86 6.82C55.86 5.40 56.46 4.47 57.67 4.47C58.10 4.47 58.38 4.59 58.66 4.77L59.01 3.39C58.67 3.12 58.28 3.01 57.72 3.01C56.77 3.01 56.20 3.50 55.73 4.48L55.73 3.22L54.31 3.22L54.31 10.50Z"></path></g><defs data-v-fde0c5aa=""><linearGradient data-v-fde0c5aa="" gradientTransform="rotate(25)" id="62624911-1610-4efd-b56c-d83506e52be8" x1="0%" y1="0%" x2="100%" y2="0%"><stop data-v-fde0c5aa="" offset="0%" stop-color="#0D7CE9" stop-opacity="1"></stop><stop data-v-fde0c5aa="" offset="100%" stop-color="#15CFF1" stop-opacity="1"></stop></linearGradient></defs><g data-v-fde0c5aa="" id="3b50b142-b982-495b-bf64-09090907698c" stroke="none" fill="url(#62624911-1610-4efd-b56c-d83506e52be8)" transform="matrix(0.7798438058974853,0,0,0.7798438058974853,35.266348336191705,114.92434097913686)"><path clip-rule="evenodd" d="M11.832 15.708h59.213a3.842 3.842 0 0 1 3.875 3.864v4.667H7.961v-4.667a3.839 3.839 0 0 1 3.871-3.864zm0-1.89c-3.178 0-5.762 2.583-5.762 5.754V67.75c0 3.172 2.584 5.755 5.762 5.755h57.922a.945.945 0 0 0 .984-.942.947.947 0 0 0-.984-.943H11.832a3.843 3.843 0 0 1-3.871-3.87V26.13H74.92v9.402c0 1.265 1.891 1.265 1.891 0v-15.96c0-3.172-2.588-5.754-5.766-5.754H11.832z"></path><path clip-rule="evenodd" d="M13.926 31.714a.942.942 0 0 0-.943.943v15.5c0 .52.422.948.943.948h25.488a.948.948 0 0 0 .959-.948.942.942 0 0 0-.959-.943H14.873V33.599h31.928a.943.943 0 1 0 0-1.885H13.926zM14.873 57.067H26.52v7.074H14.873v-7.074zm-.947-1.89a.944.944 0 0 0-.943.948v8.958c0 .521.422.949.943.949h13.541a.947.947 0 0 0 .943-.949v-8.958a.944.944 0 0 0-.943-.948H13.926z"></path><path d="M13.91 17.78a.944.944 0 0 0-.928.959v2.459a.943.943 0 0 0 .943.958.95.95 0 0 0 .947-.958v-2.459a.947.947 0 0 0-.962-.959zM18.773 17.78a.942.942 0 0 0-.926.959v2.459a.942.942 0 0 0 .941.958.952.952 0 0 0 .949-.958v-2.459a.948.948 0 0 0-.964-.959z"></path><path clip-rule="evenodd" d="M34.129 55.177a.944.944 0 0 0-.943.948v8.958c0 .521.422.949.943.949h16.469a.947.947 0 0 0 .957-.949.938.938 0 0 0-.957-.942H35.076v-7.074h6.588a.945.945 0 1 0 0-1.891h-7.535zM71.498 59.343l10.088 12.11c.656.792.563 1.854-.141 2.437-.703.59-1.754.48-2.41-.312L68.93 61.469a16.362 16.362 0 0 0 2.568-2.126zM59.42 33.604c.959-.027 1.932.047 2.912.219 7.832 1.375 13.051 8.823 11.682 16.651-1.365 7.833-8.797 13.042-16.631 11.667-7.832-1.38-13.063-8.818-11.691-16.647a14.347 14.347 0 0 1 13.728-11.89zm-.047-1.886c-7.557.215-14.193 5.72-15.541 13.448-1.547 8.839 4.379 17.276 13.219 18.833 3.629.636 7.182 0 10.229-1.561l10.303 12.354c1.275 1.532 3.563 1.813 5.078.547 1.516-1.266 1.65-3.563.375-5.094L72.748 57.901a16.136 16.136 0 0 0 3.135-7.099c1.547-8.838-4.391-17.287-13.229-18.838a16.33 16.33 0 0 0-3.281-.246z"></path><path d="M62.426 39.999a.948.948 0 0 0-.834.631l-5.24 14.047a.947.947 0 0 0 .547 1.234.952.952 0 0 0 1.225-.579l5.24-14.046a.947.947 0 0 0-.938-1.287z"></path><path clip-rule="evenodd" d="M54.311 42.547a.938.938 0 0 0-.646.285l-4.385 4.412a.94.94 0 0 0 0 1.333l4.385 4.407a.95.95 0 0 0 1.34.005.95.95 0 0 0 .004-1.338l-3.729-3.746 3.729-3.734c.62-.604.171-1.656-.698-1.624zM65.373 42.547c-.854-.005-1.281 1.03-.666 1.624l3.729 3.734-3.729 3.746a.943.943 0 1 0 1.332 1.334l4.396-4.407a.94.94 0 0 0 0-1.333l-4.396-4.412a.938.938 0 0 0-.666-.286z"></path></g><!----></svg>