<svg data-v-423bf9ae="" xmlns="http://www.w3.org/2000/svg" viewBox="0 0 270.9316739005479 60" class="font"><!----><!----><!----><g data-v-423bf9ae="" id="8ab34fbf-f5bc-4f01-a2be-a9db65e82ba4" fill="white" transform="matrix(4.658385051777184,0,0,4.658385051777184,-3.9596291416879126,-1.956522335933407)"><path d="M2.41 2.00L2.41 0.42L0.85 0.42L0.85 2.00ZM2.41 10.50L2.41 3.22L0.85 3.22L0.85 10.50ZM5.68 10.50L5.68 6.54C5.68 5.10 6.41 4.33 7.41 4.33C8.40 4.33 8.78 4.98 8.78 6.09L8.78 10.50L10.33 10.50L10.33 6.03C10.33 4.30 9.79 3.01 7.77 3.01C6.82 3.01 6.09 3.37 5.56 4.27L5.56 3.22L4.13 3.22L4.13 10.50ZM11.62 8.40C11.75 9.83 12.85 10.71 14.63 10.71C16.18 10.71 17.60 10.04 17.60 8.43C17.60 7.03 16.63 6.52 15.76 6.30L13.90 5.84C13.50 5.74 13.13 5.52 13.13 5.11C13.13 4.56 13.65 4.26 14.53 4.26C15.32 4.26 15.85 4.59 15.96 5.33L17.36 5.11C17.28 3.92 16.31 3.01 14.57 3.01C13.08 3.01 11.73 3.65 11.73 5.22C11.73 6.43 12.59 6.96 13.54 7.20L15.30 7.64C15.89 7.80 16.14 8.05 16.14 8.53C16.14 9.25 15.33 9.46 14.67 9.46C13.61 9.46 13.13 8.90 13.03 8.18L11.62 8.40ZM20.44 13.30L20.44 9.79C20.86 10.39 21.52 10.71 22.29 10.71C24.21 10.71 25.44 9.23 25.44 6.86C25.44 4.49 24.23 3.01 22.32 3.01C21.39 3.01 20.72 3.47 20.30 4.17L20.30 3.22L18.89 3.22L18.89 13.30ZM20.29 6.86C20.29 5.17 21.20 4.31 22.12 4.31C23.13 4.31 23.88 5.17 23.88 6.86C23.88 8.57 23.14 9.42 22.11 9.42C21.07 9.42 20.29 8.57 20.29 6.86ZM33.10 7.28C33.11 7.21 33.11 6.85 33.11 6.66C33.11 4.44 31.81 3.01 29.74 3.01C27.78 3.01 26.31 4.35 26.31 6.86C26.31 9.37 27.78 10.71 29.74 10.71C31.39 10.71 32.55 9.93 33.01 8.37L31.54 8.06C31.33 8.93 30.63 9.42 29.83 9.42C28.83 9.42 27.96 8.76 27.86 7.28ZM29.72 4.31C30.77 4.31 31.44 5.05 31.50 6.13L27.90 6.13C28.08 4.89 28.91 4.31 29.72 4.31ZM35.55 6.86C35.55 5.10 36.36 4.31 37.38 4.31C38.16 4.31 38.78 4.75 39.00 5.81L40.52 5.52C40.12 3.85 38.95 3.01 37.38 3.01C35.41 3.01 33.99 4.35 33.99 6.86C33.99 9.37 35.41 10.71 37.38 10.71C38.95 10.71 40.12 9.88 40.52 8.22L39.00 7.92C38.78 8.97 38.16 9.42 37.38 9.42C36.34 9.42 35.55 8.62 35.55 6.86ZM45.07 9.20C44.84 9.27 44.63 9.28 44.49 9.28C43.83 9.28 43.83 8.83 43.83 8.20L43.83 4.44L45.12 4.44L45.12 3.22L43.83 3.22L43.83 0.85L42.28 1.46L42.28 3.22L41.24 3.22L41.24 4.44L42.28 4.44L42.28 8.37C42.28 9.80 42.60 10.64 44.13 10.64C44.39 10.64 44.93 10.57 45.21 10.47ZM46.06 6.86C46.06 9.37 47.54 10.71 49.55 10.71C51.53 10.71 53.02 9.37 53.02 6.86C53.02 4.35 51.53 3.01 49.55 3.01C47.54 3.01 46.06 4.35 46.06 6.86ZM47.61 6.86C47.61 5.10 48.48 4.31 49.55 4.31C50.60 4.31 51.46 5.10 51.46 6.86C51.46 8.62 50.60 9.42 49.55 9.42C48.48 9.42 47.61 8.62 47.61 6.86ZM55.86 10.50L55.86 6.82C55.86 5.40 56.46 4.47 57.67 4.47C58.10 4.47 58.38 4.59 58.66 4.77L59.01 3.39C58.67 3.12 58.28 3.01 57.72 3.01C56.77 3.01 56.20 3.50 55.73 4.48L55.73 3.22L54.31 3.22L54.31 10.50Z"></path></g><!----><!----></svg>